<mxfile host="app.diagrams.net" modified="2023-11-30T15:58:01.964Z" agent="Mozilla/5.0 (X11; Linux x86_64) AppleWebKit/537.36 (KHTML, like Gecko) Chrome/119.0.0.0 Safari/537.36" etag="ARs7LAOENUUoIoipf4n-" version="22.1.5" type="device">
  <diagram name="Page-1" id="Ull6EUwmBMXi5CMNSNoD">
    <mxGraphModel dx="2074" dy="1166" grid="1" gridSize="10" guides="1" tooltips="1" connect="1" arrows="1" fold="1" page="1" pageScale="1" pageWidth="850" pageHeight="1100" math="0" shadow="0">
      <root>
        <mxCell id="0" />
        <mxCell id="1" parent="0" />
        <mxCell id="SEuOGr045ENZ4c7asKHh-3" value="" style="edgeStyle=orthogonalEdgeStyle;rounded=0;orthogonalLoop=1;jettySize=auto;html=1;" parent="1" source="SEuOGr045ENZ4c7asKHh-1" target="SEuOGr045ENZ4c7asKHh-2" edge="1">
          <mxGeometry relative="1" as="geometry" />
        </mxCell>
        <mxCell id="SEuOGr045ENZ4c7asKHh-1" value="Начало" style="ellipse;whiteSpace=wrap;html=1;" parent="1" vertex="1">
          <mxGeometry x="350" width="120" height="80" as="geometry" />
        </mxCell>
        <mxCell id="SEuOGr045ENZ4c7asKHh-7" value="" style="edgeStyle=orthogonalEdgeStyle;rounded=0;orthogonalLoop=1;jettySize=auto;html=1;" parent="1" source="SEuOGr045ENZ4c7asKHh-2" target="SEuOGr045ENZ4c7asKHh-6" edge="1">
          <mxGeometry relative="1" as="geometry" />
        </mxCell>
        <mxCell id="SEuOGr045ENZ4c7asKHh-2" value="n,m, y*[n],T*[n]" style="shape=parallelogram;perimeter=parallelogramPerimeter;whiteSpace=wrap;html=1;fixedSize=1;" parent="1" vertex="1">
          <mxGeometry x="350" y="100" width="120" height="60" as="geometry" />
        </mxCell>
        <mxCell id="SEuOGr045ENZ4c7asKHh-38" value="" style="edgeStyle=orthogonalEdgeStyle;rounded=0;orthogonalLoop=1;jettySize=auto;html=1;" parent="1" source="SEuOGr045ENZ4c7asKHh-4" target="SEuOGr045ENZ4c7asKHh-37" edge="1">
          <mxGeometry relative="1" as="geometry" />
        </mxCell>
        <mxCell id="SEuOGr045ENZ4c7asKHh-4" value="За row от 0 до n&lt;br&gt;" style="swimlane;horizontal=0;whiteSpace=wrap;html=1;startSize=30;" parent="1" vertex="1">
          <mxGeometry x="30" y="180" width="790" height="240" as="geometry" />
        </mxCell>
        <mxCell id="SEuOGr045ENZ4c7asKHh-6" value="" style="shape=waypoint;sketch=0;size=6;pointerEvents=1;points=[];fillColor=default;resizable=0;rotatable=0;perimeter=centerPerimeter;snapToPoint=1;" parent="SEuOGr045ENZ4c7asKHh-4" vertex="1">
          <mxGeometry x="90" y="-10" width="20" height="20" as="geometry" />
        </mxCell>
        <mxCell id="SEuOGr045ENZ4c7asKHh-14" value="" style="edgeStyle=orthogonalEdgeStyle;rounded=0;orthogonalLoop=1;jettySize=auto;html=1;" parent="SEuOGr045ENZ4c7asKHh-4" source="SEuOGr045ENZ4c7asKHh-9" target="SEuOGr045ENZ4c7asKHh-13" edge="1">
          <mxGeometry relative="1" as="geometry" />
        </mxCell>
        <mxCell id="SEuOGr045ENZ4c7asKHh-9" value="За col от 0 до m&lt;br&gt;" style="swimlane;horizontal=0;whiteSpace=wrap;html=1;" parent="SEuOGr045ENZ4c7asKHh-4" vertex="1">
          <mxGeometry x="35" y="30" width="750" height="210" as="geometry" />
        </mxCell>
        <mxCell id="SEuOGr045ENZ4c7asKHh-16" value="" style="shape=waypoint;sketch=0;size=6;pointerEvents=1;points=[];fillColor=default;resizable=0;rotatable=0;perimeter=centerPerimeter;snapToPoint=1;rounded=1;" parent="SEuOGr045ENZ4c7asKHh-9" vertex="1">
          <mxGeometry x="90" y="-10" width="20" height="20" as="geometry" />
        </mxCell>
        <mxCell id="SEuOGr045ENZ4c7asKHh-19" value="" style="edgeStyle=orthogonalEdgeStyle;rounded=0;orthogonalLoop=1;jettySize=auto;html=1;exitX=0.5;exitY=0.75;exitDx=0;exitDy=0;exitPerimeter=0;entryX=0.5;entryY=0;entryDx=0;entryDy=0;" parent="SEuOGr045ENZ4c7asKHh-9" source="SEuOGr045ENZ4c7asKHh-16" target="SEuOGr045ENZ4c7asKHh-18" edge="1">
          <mxGeometry relative="1" as="geometry">
            <mxPoint x="140" y="10" as="sourcePoint" />
            <mxPoint x="145" y="30" as="targetPoint" />
          </mxGeometry>
        </mxCell>
        <mxCell id="SEuOGr045ENZ4c7asKHh-21" value="" style="edgeStyle=orthogonalEdgeStyle;rounded=0;orthogonalLoop=1;jettySize=auto;html=1;" parent="SEuOGr045ENZ4c7asKHh-9" source="SEuOGr045ENZ4c7asKHh-18" target="SEuOGr045ENZ4c7asKHh-20" edge="1">
          <mxGeometry relative="1" as="geometry" />
        </mxCell>
        <mxCell id="SEuOGr045ENZ4c7asKHh-18" value="y[row][col]" style="shape=parallelogram;perimeter=parallelogramPerimeter;whiteSpace=wrap;html=1;fixedSize=1;" parent="SEuOGr045ENZ4c7asKHh-9" vertex="1">
          <mxGeometry x="40" y="40" width="120" height="60" as="geometry" />
        </mxCell>
        <mxCell id="SEuOGr045ENZ4c7asKHh-23" value="" style="edgeStyle=orthogonalEdgeStyle;rounded=0;orthogonalLoop=1;jettySize=auto;html=1;" parent="SEuOGr045ENZ4c7asKHh-9" source="SEuOGr045ENZ4c7asKHh-20" target="SEuOGr045ENZ4c7asKHh-22" edge="1">
          <mxGeometry relative="1" as="geometry" />
        </mxCell>
        <mxCell id="SEuOGr045ENZ4c7asKHh-20" value="y[row][col]&amp;lt;0" style="rhombus;whiteSpace=wrap;html=1;" parent="SEuOGr045ENZ4c7asKHh-9" vertex="1">
          <mxGeometry x="180" y="30" width="130" height="110" as="geometry" />
        </mxCell>
        <mxCell id="SEuOGr045ENZ4c7asKHh-22" value="&lt;div&gt;T[row][0] += y[row][col];&lt;/div&gt;" style="whiteSpace=wrap;html=1;" parent="SEuOGr045ENZ4c7asKHh-9" vertex="1">
          <mxGeometry x="405" y="82.5" width="175" height="45" as="geometry" />
        </mxCell>
        <mxCell id="SEuOGr045ENZ4c7asKHh-24" value="Да" style="text;html=1;strokeColor=none;fillColor=none;align=center;verticalAlign=middle;whiteSpace=wrap;rounded=0;" parent="SEuOGr045ENZ4c7asKHh-9" vertex="1">
          <mxGeometry x="325" y="97.5" width="60" height="30" as="geometry" />
        </mxCell>
        <mxCell id="SEuOGr045ENZ4c7asKHh-29" value="Не" style="text;html=1;strokeColor=none;fillColor=none;align=center;verticalAlign=middle;whiteSpace=wrap;rounded=0;" parent="SEuOGr045ENZ4c7asKHh-9" vertex="1">
          <mxGeometry x="230" y="180" width="60" height="30" as="geometry" />
        </mxCell>
        <mxCell id="SEuOGr045ENZ4c7asKHh-34" style="edgeStyle=orthogonalEdgeStyle;rounded=0;orthogonalLoop=1;jettySize=auto;html=1;exitX=1;exitY=0.5;exitDx=0;exitDy=0;" parent="SEuOGr045ENZ4c7asKHh-9" source="SEuOGr045ENZ4c7asKHh-22" edge="1">
          <mxGeometry relative="1" as="geometry">
            <mxPoint x="750" y="80" as="targetPoint" />
            <Array as="points">
              <mxPoint x="620" y="105" />
              <mxPoint x="720" y="105" />
              <mxPoint x="720" y="80" />
            </Array>
          </mxGeometry>
        </mxCell>
        <mxCell id="SEuOGr045ENZ4c7asKHh-13" value="" style="shape=waypoint;sketch=0;size=6;pointerEvents=1;points=[];fillColor=default;resizable=0;rotatable=0;perimeter=centerPerimeter;snapToPoint=1;fontStyle=1;startSize=23;" parent="SEuOGr045ENZ4c7asKHh-4" vertex="1">
          <mxGeometry x="400" y="-10" width="20" height="20" as="geometry" />
        </mxCell>
        <mxCell id="SEuOGr045ENZ4c7asKHh-27" value="" style="shape=waypoint;sketch=0;size=6;pointerEvents=1;points=[];fillColor=default;resizable=0;rotatable=0;perimeter=centerPerimeter;snapToPoint=1;" parent="SEuOGr045ENZ4c7asKHh-4" vertex="1">
          <mxGeometry x="325" y="230" width="20" height="20" as="geometry" />
        </mxCell>
        <mxCell id="SEuOGr045ENZ4c7asKHh-28" value="" style="edgeStyle=orthogonalEdgeStyle;rounded=0;orthogonalLoop=1;jettySize=auto;html=1;" parent="SEuOGr045ENZ4c7asKHh-4" source="SEuOGr045ENZ4c7asKHh-20" target="SEuOGr045ENZ4c7asKHh-27" edge="1">
          <mxGeometry relative="1" as="geometry" />
        </mxCell>
        <mxCell id="SEuOGr045ENZ4c7asKHh-40" value="" style="edgeStyle=orthogonalEdgeStyle;rounded=0;orthogonalLoop=1;jettySize=auto;html=1;" parent="1" source="SEuOGr045ENZ4c7asKHh-37" target="SEuOGr045ENZ4c7asKHh-39" edge="1">
          <mxGeometry relative="1" as="geometry" />
        </mxCell>
        <mxCell id="SEuOGr045ENZ4c7asKHh-37" value="изход&lt;br&gt;y,T" style="shape=parallelogram;perimeter=parallelogramPerimeter;whiteSpace=wrap;html=1;fixedSize=1;fontStyle=1;startSize=30;" parent="1" vertex="1">
          <mxGeometry x="320" y="450" width="120" height="60" as="geometry" />
        </mxCell>
        <mxCell id="SEuOGr045ENZ4c7asKHh-39" value="Край" style="ellipse;whiteSpace=wrap;html=1;fontStyle=1;startSize=30;" parent="1" vertex="1">
          <mxGeometry x="190" y="470" width="110" height="50" as="geometry" />
        </mxCell>
        <mxCell id="SEuOGr045ENZ4c7asKHh-41" value="35.2" style="text;html=1;strokeColor=none;fillColor=none;align=center;verticalAlign=middle;whiteSpace=wrap;rounded=0;" parent="1" vertex="1">
          <mxGeometry x="10" y="10" width="60" height="30" as="geometry" />
        </mxCell>
      </root>
    </mxGraphModel>
  </diagram>
</mxfile>
